<svg xmlns="http://www.w3.org/2000/svg" data-name="Layer 1" viewBox="0 0 100 100" x="0px" y="0px"><title>Artboard 5</title><path d="M30.88,35.12a3.07,3.07,0,0,0,4.24,0,3,3,0,0,0,0-4.24l-3-3a3,3,0,1,0-4.24,4.24Z"/><path d="M22,52h5a3,3,0,0,0,0-6H22a3,3,0,0,0,0,6Z"/><path d="M50,31a3,3,0,0,0,3-3V23a3,3,0,0,0-6,0v5A3,3,0,0,0,50,31Z"/><path d="M69.12,35.12l3-3a3,3,0,1,0-4.24-4.24l-3,3a3,3,0,0,0,0,4.24A3.07,3.07,0,0,0,69.12,35.12Z"/><path d="M70,49a3,3,0,0,0,3,3h5a3,3,0,0,0,0-6H73A3,3,0,0,0,70,49Z"/><path d="M71,80a3,3,0,0,0,3-3V70a9,9,0,0,0-9-9H35a9,9,0,0,0-9,9v7a3,3,0,0,0,6,0V70a3,3,0,0,1,3-3H65a3,3,0,0,1,3,3v7A3,3,0,0,0,71,80Z"/><path d="M42,52H58a3,3,0,0,0,0-6H42a3,3,0,0,0,0,6Z"/><text x="0" y="115" fill="#000000" font-size="5px" font-weight="bold" font-family="'Helvetica Neue', Helvetica, Arial-Unicode, Arial, Sans-serif">Created by Gregor Cresnar</text><text x="0" y="120" fill="#000000" font-size="5px" font-weight="bold" font-family="'Helvetica Neue', Helvetica, Arial-Unicode, Arial, Sans-serif">from the Noun Project</text></svg>
