<?xml version="1.0" standalone="no"?>
<!DOCTYPE svg PUBLIC "-//W3C//DTD SVG 1.1//EN" "http://www.w3.org/Graphics/SVG/1.1/DTD/svg11.dtd" >
<svg xmlns="http://www.w3.org/2000/svg" xmlns:xlink="http://www.w3.org/1999/xlink" version="1.1" viewBox="-10 0 2068 2048">
   <path fill="currentColor"
d="M124 222l471 368q56 -85 141 -143t186 -78v-62q0 -42 29.5 -72t72.5 -30t72.5 30t29.5 72v62q116 23 209.5 94.5t147 178t53.5 228.5v61q0 113 40 218t115 190l24 26q20 23 24.5 53t-7.5 58q-1 0 -1.5 1.5t-1.5 2.5l289 226q25 20 29 51.5t-15.5 56.5t-51 28.5
t-56.5 -15.5l-1894 -1485q-25 -20 -29 -51t15.5 -56.5t51 -29t56.5 16.5zM1300 1536h-890q-30 0 -56 -16.5t-38 -43.5q-12 -28 -7.5 -57.5t24.5 -52.5l24 -27q75 -85 115 -190t40 -218v-15zM1169 1783q-59 60 -145 60t-145 -60q-60 -60 -60 -145h205h205q0 85 -60 145z" />
</svg>
