<?xml version="1.0" standalone="no"?>
<!DOCTYPE svg PUBLIC "-//W3C//DTD SVG 1.1//EN" "http://www.w3.org/Graphics/SVG/1.1/DTD/svg11.dtd" >
<svg xmlns="http://www.w3.org/2000/svg" xmlns:xlink="http://www.w3.org/1999/xlink" version="1.1" viewBox="-10 0 2068 2048">
   <path fill="currentColor"
d="M1 358q6 -53 30 -96q35 -64 97 -100q44 -26 102 -32q16 -2 26 -2h1536q106 0 181 75t75 181v512v768q0 106 -75 181t-181 75h-1536q-106 0 -181 -75t-75 -181v-768v-512q0 -18 1 -26zM192 896v768q0 26 19 45t45 19h1536q26 0 45 -19t19 -45v-768h-1664z" />
</svg>
